# xmcd
#
# Track frame offsets:
#	150
#	16697
#	27578
#	51614
#	74444
#	85464
#	114207
#	128634
#	149527
#	167869
#	203903
#	241350
#
# Disc length: 3734 seconds
#
# Revision: 0
# Processed by: cddbd v1.5.1PL0 Copyright (c) Steve Scherf et al.
# Submitted via: dBpowerAMP V4.0
#
DISCID=ad0e940c
DTITLE=Stax Of Soul - - Down at the Night Club
DYEAR=2004
DGENRE=Soul
TTITLE0=Can't  Turn You Loose/Gimme Some Lovin'
TTITLE1=Get Ready
TTITLE2=Soothe Me/You Don't Know Like I Know
TTITLE3=Stand By Me
TTITLE4=Mr Pitiful
TTITLE5=I Get The Sweetest Feeling/Papa Was A Rolling Stone/Satisfaction
TTITLE6=My Girl
TTITLE7=Papa's Got A Brand New Bag/I Feel Good
TTITLE8=Sex Machine
TTITLE9=Ain't Nothing But A House Party/Harlem Shuffle/Shake Your Tail Feather/Can't Turn You Loose
TTITLE10=Dance To The Music/I Can't Help Myself/Same Old Song/I Heard It Through The Grapevine/Uptight/25 Miles
TTITLE11=Everybody needs Somebody/Land Of A Thousand Dances/Higher And Higher/Reprise
EXTD=
EXTT0=
EXTT1=
EXTT2=
EXTT3=
EXTT4=
EXTT5=
EXTT6=
EXTT7=
EXTT8=
EXTT9=
EXTT10=
EXTT11=
PLAYORDER=
